<?xml version="1.0" encoding="iso-8859-1"?>
<!-- Uploaded to: SVG Repo, www.svgrepo.com, Generator: SVG Repo Mixer Tools -->
<svg height="800px" width="800px" version="1.1" id="Layer_1" xmlns="http://www.w3.org/2000/svg" xmlns:xlink="http://www.w3.org/1999/xlink" 
	 viewBox="0 0 512.001 512.001" xml:space="preserve">
<path style="fill:#DBAD75;" d="M19.851,364.491c-7.356,1.537-15.061-2.137-18.337-9.254c-3.807-8.273-0.187-18.066,8.086-21.873
	l29.148-13.414c8.275-3.807,18.066-0.187,21.873,8.086c3.807,8.273,0.187,18.066-8.086,21.873l-29.148,13.414
	C22.231,363.854,21.046,364.241,19.851,364.491z"/>
<path style="fill:#EABD81;" d="M1.514,355.236c-3.807-8.273-0.187-18.066,8.086-21.873l29.148-13.414
	c8.275-3.807,18.066-0.187,21.873,8.086L1.514,355.236z"/>
<path style="fill:#BC2A46;" d="M510.491,213.263L440.42,61c-2.406-5.23-7.367-8.827-13.089-9.487
	c-5.72-0.661-11.369,1.713-14.905,6.256l-28.14,36.174L90.149,200.707c-27.378,9.734-49.553,30.672-60.84,57.448
	c-11.288,26.774-10.794,57.271,1.353,83.667s34.988,46.607,62.667,55.451c17.225,5.503,35.474,6.334,52.854,2.704
	c10.549-2.203,20.778-6.049,30.26-11.492L448.956,234.47l45.78,2.157c5.751,0.274,11.228-2.478,14.447-7.252
	C512.403,224.601,512.897,218.494,510.491,213.263z"/>
<path style="fill:#D62D46;" d="M475.534,137.304L440.42,61c-2.406-5.23-7.367-8.827-13.089-9.487
	c-5.72-0.661-11.369,1.713-14.905,6.256l-28.14,36.174L90.149,200.707c-27.378,9.734-49.553,30.672-60.84,57.448
	c-11.288,26.774-10.794,57.271,1.353,83.667L475.534,137.304z"/>
<path style="fill:#39B7B6;" d="M510.491,213.263L440.42,61c-2.406-5.23-7.367-8.827-13.089-9.487
	c-5.72-0.661-11.369,1.713-14.905,6.256l-28.14,36.174l-9.768,3.545l65.39,142.093l9.047-5.114l45.78,2.157
	c5.751,0.274,11.228-2.478,14.447-7.252C512.403,224.601,512.897,218.494,510.491,213.263z"/>
<path style="fill:#66CBC4;" d="M475.486,137.124L440.42,61c-2.406-5.23-7.367-8.827-13.089-9.487
	c-5.72-0.661-11.369,1.713-14.905,6.256l-28.14,36.174l-9.768,3.545l32.713,71.015L475.486,137.124z"/>
<path style="fill:#0E4151;" d="M196.66,212.323c-68.45,0.03-124.112,55.741-124.083,124.19
	c0.03,68.45,55.741,124.112,124.19,124.083c68.449-0.03,124.111-55.741,124.082-124.19
	C320.82,267.956,265.109,212.294,196.66,212.323z"/>
<path style="fill:#144F66;" d="M196.66,212.323c-68.45,0.03-124.112,55.741-124.083,124.19
	c0.03,68.45,55.741,124.112,124.19,124.083L196.66,212.323z"/>
<path style="fill:#CFCDD6;" d="M196.688,274.287c-34.283,0.015-62.161,27.918-62.145,62.199
	c0.015,34.283,27.918,62.161,62.199,62.145c34.281-0.015,62.161-27.918,62.146-62.199
	C258.874,302.151,230.969,274.272,196.688,274.287z"/>
<path style="fill:#DEE1E7;" d="M196.688,274.287c-34.283,0.015-62.161,27.918-62.145,62.199
	c0.015,34.283,27.918,62.161,62.199,62.145L196.688,274.287z"/>
<path style="fill:#0E4151;" d="M196.699,301.59c-19.227,0.009-34.862,15.657-34.853,34.884
	c0.009,19.227,15.657,34.862,34.884,34.853c19.227-0.009,34.862-15.657,34.854-34.884
	C231.576,317.217,215.927,301.582,196.699,301.59z"/>
<path style="fill:#144F66;" d="M196.699,301.59c-19.227,0.009-34.862,15.657-34.853,34.884
	c0.009,19.227,15.657,34.862,34.884,34.853L196.699,301.59z"/>
</svg>