<?xml version="1.0" encoding="UTF-8"?>
<svg xmlns="http://www.w3.org/2000/svg" version="1.1" viewBox="0 0 1484.23 1482.27">
  <defs>
    <style>
      .cls-1 {
        fill: #c2292a;
      }

      .cls-2 {
        fill: #ae1b24;
      }
    </style>
  </defs>
  
  <g>
    <g id="katman_1">
      <path class="cls-2" d="M370.75,559.77l6.15.46c12.97,1.43,22.42,11.19,30.17,20.83-6.48,4.49-12.63,7.93-20.07,10.57-5.75,1.06-11.27,1.49-16.88-.59-9.94-3.69-14.59-10.94-18.71-20.12,6.03-6.76,10.39-9.36,19.34-11.15Z"/>
      <path class="cls-2" d="M635.39,1273.47c2.34-.7,4.46-1.62,6.32-3.25,3.25-2.86,3.15-7.22,3.25-11.18-2.29-1.16-3.67-1.8-4.62-4.31-4.29-11.34-6.07-24.55-7.45-36.54-6.64-57.62,2.34-116.7,16.97-172.47,7.33-27.92,15.91-55.6,27.2-82.19l13.19,12.9-13.2,40c-20.03,67.43-32.8,137.26-26.09,207.73,1.65,17.35,3.1,36.62,10.91,52.46-7.14-.02-21.28,1.27-26.47-3.15Z"/>
      <path class="cls-1" d="M640.56,357.83c41.59-2.95,83.64,7.65,120.54,26.59,36.03,18.49,76.95,50.7,89.66,90.76,9.41,29.63,3.95,62.47-7.57,90.69-22.8,55.81-64.57,100.87-110.95,138.19-22.68,18.25-45.79,34.82-66.5,55.41-10.59,10.53-22.14,20.51-29.13,33.87l-11.96,26.67c-3.19,5.47-7.83,10.16-14.19,11.52-6.13,1.31-11.92-1.12-16.97-4.44-15.36-10.08-26.36-29.47-32.64-46.23-15.65-41.79-13.79-88.24-.31-130.29,3.36-10.49,8.12-20.45,11.81-30.81,12.51-35.16,18.65-70.67,9.95-107.51-3.23-13.66-9.64-26.05-17.1-37.83-18.62-29.43-43.33-51.18-72.73-69.54,50.29-13.64,95.45-42.16,148.09-47.05Z"/>
      <path class="cls-1" d="M690.24,976.44c37.81,34.34,78.57,65.83,125.47,86.82l-15.66,130.93-4.86,47.12c-.93,9.17-3.01,20.12-1.83,29.22l1.75,2.38c7.85,1.17,16.3.55,24.23.53l42.68-.02,43.96.12c8.58.04,17.36.8,25.87-.48.36-3.35,1.04-7.13.78-10.48-.25-3.25-2.43-6.5-3.41-9.6-1.22-3.86-1.48-7.98-1.73-11.99-1.22-19.2-.98-38.32-.49-57.53.48-18.88,1.13-38.11,4.49-56.74,1.62-8.99,6.62-17.1,11.16-24.89,5.21-8.93,10.37-17.83,14.88-27.15,9.06-18.73,16.91-38.07,23.84-57.69,12.36-34.97,21.47-72.15,27.38-108.77,2.57-15.91,3.12-32.15,6.37-47.94,4.9,78.61-6.38,152.7-37.62,225.28l-11.82,26.56-8.58,16.63c-2.69,4.91-5.3,8.53-5.87,14.22-3.61,35.42-1.37,71.78,1.9,107.16.44,4.73-.12,14.19,2.72,17.74,1.95,2.45,4.3,3.7,7.44,3.89,19.46,1.18,39.68-.06,59.23-.01l37.57.1c5.63.02,11.55.5,17.15.1,1.88-.13,3.43-.79,4.87-2.01,1.64-1.4,2.4-3.34,3.19-5.29-.32-10.34-5.78-22.29-7.8-32.71-5.02-25.89-7.13-51.87-6.39-78.23.87-30.68,5.27-61.13,12.58-90.93,5.47-22.32,13.3-43.73,20.14-65.62l22.91-85.48c4.66-21,8.55-42.84,9.77-64.32.78-13.75-.57-28.72,1.67-42.19,2.49,20.81,3.92,41.61,7.52,62.3,7.25,41.67,21.37,84.53,44.16,120.33,16.73,26.29,38.86,49.82,63.3,69.11,31.88,25.15,74.33,45.68,114.49,52.74-6.61-3.46-13.89-5.71-20.77-8.59-10.75-4.51-21.05-9.7-31.15-15.52-63.39-36.54-109.45-99.41-131.03-168.74-17.26-55.45-17.37-113.05-22.9-170.23-3.6-37.22-12.15-73.04-25.98-107.77-9.03-22.68-19.64-44.7-33.5-64.87-34.97-50.92-85.54-87.06-139.53-115.58-37.42-19.77-77.97-34.63-118.96-45-16.32-4.13-33.66-6.16-49.67-11.04-2.93-.89-5.55-3.8-7.82-5.76l-11.1-9.07c-12.4-9.65-25.7-18.02-39.9-24.79-30.64-14.62-63.44-24.89-96.56-32.1-75.48-16.42-157.91-16.6-228.71,17.64-66.91,32.35-115.25,86.04-139.42,156.46-25.34,73.82-27.73,153.84-20.74,230.9l17.75,126.95,14.07,80.52c9,55.75,17.12,123.72-15.32,173.66-9.01,13.87-21.1,25.62-35.98,33.02-10.95,5.45-22.25,8.05-34.31,9.58-23.32,2.96-49.63-1.96-71.44-10.14-6.29-7.54-11.21-16.25-16.34-24.59l-23.63-41.03C19.6,961.48-9.68,818.09,2.83,680.16c18.01-198.54,115.33-381.99,268.71-509.16C367.06,91.8,481.94,36.34,603.94,12.99,673.96-.41,745.8-3.2,816.72,3.5c193.95,18.34,376.86,118.18,500.37,268.16,125.38,152.23,182.79,352.04,163.46,547.7-18.34,185.64-109.91,368.49-255.09,487.31-36.97,30.26-75.32,57.85-117.02,81.26-93.97,52.76-198.72,83.06-305.91,91.74-42.04,3.41-85.08,3.7-127.08-.52-157.36-15.78-304.56-77.06-425.1-179.6-29.04-24.71-57.61-51.97-81.83-81.45,41.29,6.09,88.71-.78,122.7-25.98,49.6-36.78,70.04-99.6,78.34-158.26,4.93-34.81,5.2-70.66,4.03-105.74-.84-25.19-4.15-50.91-2.42-76.06,2.4-34.85,19.05-66.97,46.97-88.3,17.95-13.71,38.06-20.36,60.21-23.14,14.89-1.87,33.19-.59,47.72,2.99-38.56,1.86-75.35,13.38-102.33,42.4l1.06.29c14.9,4.25,21.61,16.57,28.61,29.29,11.8,21.41,19.02,44.75,25.83,68.12,25.43,87.31,35.39,180.97,32.22,271.82l-4.16,75.14-2.68,23.43c-.54,4.03-1.71,9.08-1.44,13.12.2,2.88,1.32,3.98,4.08,4.87,6.41,2.08,18.44.58,25.48.57l68.94.44c10.52.02,23.58-1.48,33.67.37,5.19,4.43,19.33,3.13,26.47,3.15-7.81-15.84-9.26-35.12-10.91-52.46-6.72-70.47,6.05-140.3,26.09-207.73l13.2-40Z"/>
    </g>
  </g>
</svg>