<svg width="103" height="20" viewBox="0 0 103 20" fill="none" xmlns="http://www.w3.org/2000/svg">
<path d="M0 14.5064L1.49275 14.0288L5.13507 8.17875L1.67189 2.50777L0.417969 2.03022V1.1348H5.79188V2.14961L4.12 2.62716L6.68753 6.6267H6.80696L8.95652 2.62716L7.34435 2.14961V1.1348H12.5988V2.03022L11.1061 2.50777L7.94145 7.82059L11.7032 13.9691L13.1362 14.4467V15.4018H7.52348V14.387L9.13565 13.9094L6.4487 9.43233H6.32927L3.64232 13.8497L5.25449 14.3273V15.3421H0V14.5064ZM15.2858 15.5809C15.1067 15.5212 14.8678 15.3421 14.7484 15.2227C14.5096 14.9839 14.3304 14.8048 14.3304 14.6855V6.08944L13.4945 5.85067V5.01494C14.6887 4.77617 15.3455 4.65678 15.5246 4.65678C15.7038 4.71647 15.9426 4.83586 16.062 5.01494C16.3009 5.25372 16.48 5.4328 16.48 5.55219V14.1482L17.3159 14.387V15.2227C16.5994 15.3421 15.9426 15.5212 15.2858 15.5809ZM14.211 0.299076L16.0023 0.179688L16.3606 0.657243L16.2412 2.68686H14.3304L14.211 0.299076ZM22.6301 15.5809C21.9733 15.5809 21.3762 15.4018 20.8388 15.0436C20.2417 14.6258 19.7641 14.0288 19.5252 13.3125C19.167 12.4171 18.9878 11.4023 18.9878 10.4471C18.9878 9.7905 19.0475 9.07417 19.1072 8.41753C19.167 7.88028 19.2864 7.40272 19.5252 6.92517C20.0029 6.38792 20.6 5.85067 21.1971 5.4925C21.7345 5.07464 22.3316 4.77616 22.9287 4.59708C23.2272 4.59708 24.6006 4.77617 27.0487 5.13433V13.9691L27.8249 14.2676V15.1033C26.571 15.3421 25.9142 15.4615 25.7351 15.4615C25.5559 15.4018 25.4365 15.2824 25.3171 15.163C25.0783 14.9242 24.9588 14.7451 24.9588 14.6855V13.7303C24.8394 13.79 24.4812 14.0885 23.7646 14.6855C23.4661 15.163 23.0481 15.4018 22.6301 15.5809ZM22.7496 13.8497C23.4661 13.611 24.1826 13.3125 24.8991 12.8946V6.44761C24.4214 6.32822 23.8841 6.20883 23.3467 6.14914C22.9287 6.08944 22.5107 6.02975 22.0928 6.02975C21.7942 6.02975 21.5554 6.38792 21.4359 7.04455C21.2568 8.11906 21.1971 9.25325 21.1971 10.3874C21.1971 11.0441 21.2568 11.7604 21.4359 12.4171C21.5554 12.8349 21.7942 13.2528 22.0928 13.611C22.2719 13.6706 22.5107 13.79 22.7496 13.8497ZM31.0493 15.5809C30.8701 15.5212 30.691 15.4018 30.5716 15.2824C30.4522 15.163 30.3328 14.9839 30.273 14.8048V6.20883L29.4371 5.85067V4.95525C30.691 4.71647 31.4672 4.59708 31.5867 4.59708C31.7061 4.59708 31.8255 4.71647 32.0046 4.89555C32.1838 5.13433 32.3032 5.25372 32.3032 5.31342V6.20883C32.7809 5.85067 33.2586 5.4925 33.7959 5.13433C34.0945 4.89555 34.393 4.71647 34.7513 4.53739C35.7067 4.47769 36.6023 4.77617 37.3188 5.43281C37.9159 6.02975 38.2145 7.04456 38.2145 8.47722V13.8497L39.0504 14.2079V15.0436C37.7368 15.2824 37.0203 15.4018 36.9009 15.4018C36.7815 15.4018 36.662 15.2824 36.4232 15.1033C36.1843 14.9242 36.0649 14.7451 36.0649 14.6258V8.59661C36.0649 7.58181 35.9455 6.98486 35.647 6.74608C35.4081 6.5073 35.0499 6.38792 34.6916 6.38792C34.2736 6.44761 33.8557 6.62669 33.4974 6.80578C33.1391 6.92517 32.7809 7.10425 32.4226 7.28333V14.0288L33.1988 14.387V15.2227C32.4823 15.3421 31.7658 15.5212 31.0493 15.5809ZM56.247 19.6401C56.1872 19.6401 56.0081 19.5207 55.7693 19.3416C55.5304 19.1625 55.411 18.9835 55.411 18.8641L55.5304 13.9691H55.411C55.2319 14.0885 55.0528 14.2079 54.8736 14.3273C54.6945 14.4467 54.5751 14.5661 54.396 14.6258C53.978 14.9839 53.56 15.2824 53.0823 15.5809C52.4255 15.5809 51.8284 15.4018 51.291 15.0436C50.6939 14.6258 50.1565 14.0288 49.9177 13.3125C49.5594 12.4171 49.3803 11.5216 49.3803 10.5665C49.3803 9.8502 49.44 9.13386 49.4997 8.41753C49.5594 7.88028 49.6788 7.40272 49.9177 6.92517C50.3954 6.38792 50.9925 5.85067 51.5896 5.4925C52.127 5.07464 52.7241 4.77616 53.3212 4.59708C53.5003 4.59708 54.1571 4.65677 55.1722 4.77616C56.247 4.89555 56.9635 5.01494 57.3815 5.07464V18.0283L58.2174 18.3268V19.1625C57.0829 19.5207 56.3067 19.6401 56.247 19.6401ZM53.2614 13.8497C53.978 13.611 54.6945 13.2528 55.411 12.8946V6.44761C54.9333 6.32822 54.3959 6.20883 53.8586 6.14914C53.4406 6.08944 53.0226 6.02975 52.6046 6.02975C52.3061 6.02975 52.0672 6.38792 51.9478 7.04455C51.7687 8.11906 51.709 9.25325 51.709 10.3874C51.709 11.0441 51.7687 11.7604 51.9478 12.4171C52.0672 12.8349 52.3061 13.2528 52.6046 13.611C52.7241 13.6706 52.9629 13.8497 53.2614 13.8497ZM61.5612 15.5809C61.382 15.4615 61.1432 15.3421 61.0238 15.2227C60.7849 14.9839 60.6058 14.8048 60.6058 14.6855V6.08944L59.7699 5.85067V5.01494C60.9641 4.77617 61.6209 4.65678 61.8 4.65678C61.9791 4.71647 62.218 4.83586 62.3374 5.01494C62.5762 5.25372 62.7554 5.4328 62.7554 5.55219V14.1482L63.5913 14.387V15.2227C62.8748 15.4018 62.218 15.5212 61.5612 15.5809ZM60.4267 0.299076L62.218 0.179688L62.5762 0.657243L62.4568 2.68686H60.6058L60.4267 0.299076ZM66.2186 15.5809C66.0394 15.5212 65.8603 15.4615 65.7409 15.2824C65.5617 15.1033 65.4423 14.9242 65.4423 14.8048V12.8349L66.3977 12.6558C66.6365 12.5961 66.8754 12.5961 67.1142 12.5365C67.1739 12.5365 67.3531 12.6558 67.5322 12.8349C67.7113 13.014 67.8307 13.1931 67.8307 13.2528L67.7113 15.2227C67.4128 15.2824 67.1142 15.3421 66.8754 15.4018C66.6365 15.5809 66.4574 15.5809 66.2186 15.5809ZM73.2644 15.5809C72.6673 15.5809 72.1299 15.4018 71.6522 15.0436C71.0551 14.6258 70.6371 14.0288 70.3983 13.3722C70.04 12.4768 69.9206 11.5216 69.9206 10.6262C69.9206 9.90989 69.9803 9.19356 70.04 8.47722C70.0997 7.93997 70.2191 7.46242 70.458 6.98486C70.7565 6.62669 71.0551 6.32822 71.4133 6.08944C71.891 5.73128 72.3687 5.37311 72.9061 5.07464C73.2046 4.83586 73.5629 4.71647 73.9212 4.65678C74.8168 4.65678 75.6528 4.83586 76.4887 5.13433L76.429 8.17875H74.9959L74.6974 6.567C74.4586 6.44761 74.2197 6.38792 73.9809 6.32822C73.742 6.26853 73.4435 6.20883 73.2046 6.20883C73.0852 6.20883 72.9658 6.20883 72.9061 6.32822C72.6673 6.50731 72.5478 6.98486 72.3687 7.7012C72.2493 8.59661 72.1896 9.55172 72.1896 10.4471C72.1896 11.1635 72.2493 11.8201 72.4284 12.4768C72.5478 12.8946 72.7867 13.3125 73.0852 13.6706C73.2643 13.9094 73.5629 14.0288 73.8017 14.0288H76.4887V15.0436C75.9513 15.2227 75.2945 15.4018 74.6377 15.5809C73.9809 15.76 73.3838 15.5809 73.2644 15.5809ZM82.8777 15.5809C81.2655 15.5809 80.0116 15.163 79.2354 14.3273C78.4591 13.4916 78.0412 12.1783 78.0412 10.4471C78.0412 9.7905 78.1009 9.07417 78.1606 8.41753C78.2203 7.88028 78.3397 7.40272 78.5786 6.92517C78.8771 6.567 79.1757 6.26853 79.5339 5.97005C80.0713 5.61189 80.549 5.25372 81.0267 4.89555C81.3252 4.65678 81.6835 4.47769 82.1014 4.418C83.7136 4.418 84.8481 4.89555 85.6841 5.73128C86.52 6.567 86.8783 7.82058 86.8783 9.43233C86.8783 10.1487 86.8186 10.865 86.6991 11.5813C86.6394 12.1186 86.52 12.6558 86.3409 13.1931C85.8632 13.7303 85.2661 14.2676 84.6093 14.6258C84.0719 15.1033 83.4748 15.4615 82.8777 15.5809ZM82.9971 14.2079C83.1165 14.1482 83.5345 13.9691 84.1913 13.611C84.4899 12.3574 84.6093 11.0441 84.6093 9.73081C84.669 8.716 84.4302 7.76089 83.9525 6.86547C83.5345 6.14914 82.7583 5.79097 81.982 5.79097C81.6835 5.79097 81.3252 5.85067 81.0267 6.02975C80.7878 6.14914 80.6087 6.567 80.4893 7.28333C80.3102 8.17875 80.2504 9.13386 80.2504 10.0293C80.2504 11.5813 80.4893 12.6558 81.0267 13.2528C81.5043 13.9094 82.2209 14.2676 82.9971 14.2079ZM90.1623 15.5809C89.9832 15.5212 89.8041 15.4018 89.6846 15.2824C89.5652 15.163 89.4458 14.9839 89.3861 14.8048V6.20883L88.5502 5.85067V4.95525C89.8041 4.71647 90.5803 4.59708 90.6997 4.59708C90.8191 4.59708 90.9386 4.71647 91.1177 4.89555C91.2968 5.13433 91.4162 5.25372 91.4162 5.31342V6.20883C91.8342 5.85067 92.2522 5.4925 92.7299 5.13433C92.9687 4.89555 93.2075 4.71647 93.5061 4.53739C94.1629 4.53739 94.8197 4.65678 95.4168 4.89555C95.9542 5.13433 96.3722 5.61189 96.5513 6.20883C96.9096 5.85067 97.3275 5.4925 97.7455 5.13433C97.9844 4.89555 98.2232 4.71647 98.462 4.53739C99.4771 4.47769 100.492 4.77617 101.268 5.43281C101.925 6.02975 102.224 7.04456 102.224 8.47722V13.8497L103 14.2079V15.0436C101.746 15.2824 100.97 15.4018 100.85 15.4018C100.731 15.4018 100.612 15.2824 100.373 15.1033C100.134 14.9242 100.015 14.7451 100.015 14.6258V8.59661C100.015 7.58181 99.8354 6.98486 99.5368 6.74608C99.2383 6.5073 98.88 6.38792 98.5217 6.38792C97.8649 6.62669 97.2678 6.92517 96.7304 7.28333V14.0288L97.5067 14.387V15.2227C96.2528 15.4615 95.4765 15.5809 95.3571 15.5809C95.2377 15.5809 95.1183 15.4615 94.8794 15.2824C94.6406 15.1033 94.5212 14.9242 94.5212 14.8048V8.59661C94.5212 7.58181 94.4017 6.98486 94.1032 6.74608C93.8643 6.5073 93.5061 6.38792 93.1478 6.38792C92.491 6.62669 91.8342 6.92517 91.2371 7.28333V14.0288L92.0133 14.387V15.2227C91.4759 15.4018 90.8191 15.5212 90.1623 15.5809Z" fill="#C2352E"/>
<path d="M41.3198 18.0803L40.7227 17.9609L40.3644 18.4982L41.0212 19.3936C41.0212 19.3936 42.7528 19.6921 43.8873 19.8114C44.4247 19.8711 44.9024 19.6921 45.3203 19.3339C45.8577 18.8563 46.2757 18.3191 46.634 17.7221C46.9922 17.2446 47.2311 16.7073 47.2908 16.1104V5.36538C46.7534 5.30568 46.0369 5.18629 45.0815 5.0669C44.1261 4.94751 43.5888 4.82812 43.4096 4.82812C42.7528 5.00721 42.1557 5.30568 41.678 5.78324C41.0212 6.1414 40.4241 6.61896 39.9464 7.15621C39.7673 7.63377 39.6479 8.11132 39.5882 8.58888C39.5285 9.12613 39.4688 9.66338 39.4688 10.2006C39.4688 11.0364 39.5882 11.9318 39.8867 12.7078C40.1256 13.3047 40.4838 13.9017 40.9615 14.3195C41.2601 14.618 41.678 14.8568 42.1557 14.9165L44.6038 14.5583C44.783 14.3792 44.9621 14.2002 45.2009 14.0211L45.3203 14.0808V15.2747C45.3203 16.0507 45.2606 16.8864 45.1412 17.6624C45.0218 18.4385 44.4247 18.4385 44.3053 18.4982L41.3198 18.0803ZM45.2009 12.8272C44.6635 13.245 44.1261 13.6032 43.4693 13.9017C43.1708 13.9017 42.9319 13.7823 42.7528 13.6032C42.4543 13.3047 42.2154 12.8869 42.0363 12.469C41.7974 11.8124 41.678 11.096 41.7377 10.3797C41.7377 7.93224 42.0363 6.55927 42.6931 6.38018C42.7528 6.38018 42.8125 6.38018 42.9319 6.38018C43.2902 6.38018 43.6485 6.43988 44.0067 6.55926C44.4247 6.61896 44.783 6.73835 45.2009 6.85774V12.8272Z" fill="#C2352E"/>
<path d="M47.3499 5.37038H45.26L45.5586 4.77344H47.1707L47.3499 5.37038Z" fill="#C2352E"/>
</svg>
